<mxfile host="65bd71144e">
    <diagram id="FUj3ZECicAInpiTaciuQ" name="Página-1">
        <mxGraphModel dx="832" dy="461" grid="1" gridSize="10" guides="1" tooltips="1" connect="1" arrows="1" fold="1" page="1" pageScale="1" pageWidth="827" pageHeight="1169" math="0" shadow="0">
            <root>
                <mxCell id="0"/>
                <mxCell id="1" parent="0"/>
                <mxCell id="4" style="edgeStyle=none;html=1;entryX=0.5;entryY=0;entryDx=0;entryDy=0;sketch=1;curveFitting=1;jiggle=2;" edge="1" parent="1" source="2" target="3">
                    <mxGeometry relative="1" as="geometry"/>
                </mxCell>
                <mxCell id="2" value="inicio" style="ellipse;whiteSpace=wrap;html=1;strokeColor=#2D7600;fillColor=#60a917;fontColor=#ffffff;shadow=0;sketch=1;curveFitting=1;jiggle=2;" vertex="1" parent="1">
                    <mxGeometry x="390" y="60" width="110" height="50" as="geometry"/>
                </mxCell>
                <mxCell id="6" value="" style="edgeStyle=none;html=1;sketch=1;curveFitting=1;jiggle=2;" edge="1" parent="1" source="3" target="5">
                    <mxGeometry relative="1" as="geometry"/>
                </mxCell>
                <mxCell id="3" value="r" style="shape=parallelogram;perimeter=parallelogramPerimeter;whiteSpace=wrap;html=1;fixedSize=1;strokeColor=#3700CC;fillColor=#6a00ff;fontColor=#ffffff;sketch=1;curveFitting=1;jiggle=2;" vertex="1" parent="1">
                    <mxGeometry x="380" y="150" width="120" height="60" as="geometry"/>
                </mxCell>
                <mxCell id="8" value="" style="edgeStyle=none;html=1;fontColor=#FFFFFF;sketch=1;curveFitting=1;jiggle=2;" edge="1" parent="1" source="5" target="7">
                    <mxGeometry relative="1" as="geometry"/>
                </mxCell>
                <mxCell id="5" value="p=2&amp;nbsp;&lt;span style=&quot;border-radius: 4px; padding: 0px 2px; background: linear-gradient(90deg, rgb(211, 227, 253) 50%, rgba(0, 0, 0, 0) 50%) 0% 0px / 200% 100% no-repeat rgb(255, 255, 255); color: rgb(4, 12, 40); animation: 0.75s cubic-bezier(0.05, 0.7, 0.1, 1) 0.25s 1 normal forwards running highlight; font-family: &amp;quot;Google Sans&amp;quot;, Arial, sans-serif; font-size: 20px; text-align: left;&quot;&gt;π&lt;br&gt;A=&lt;span style=&quot;border-radius: 4px; padding: 0px 2px; background-image: linear-gradient(90deg, rgb(211, 227, 253) 50%, rgba(0, 0, 0, 0) 50%); background-position: 0% 0px; background-size: 200% 100%; background-repeat: no-repeat; background-attachment: initial; background-origin: initial; background-clip: initial; animation: 0.75s cubic-bezier(0.05, 0.7, 0.1, 1) 0.25s 1 normal forwards running highlight;&quot;&gt;π r&lt;sup&gt;2&lt;/sup&gt;&lt;/span&gt;&lt;br&gt;&lt;/span&gt;" style="html=1;labelBackgroundColor=#1A1A1A;fontColor=#ffffff;whiteSpace=wrap;fillColor=#1ba1e2;strokeColor=#006EAF;rounded=0;shadow=0;glass=0;sketch=1;curveFitting=1;jiggle=2;" vertex="1" parent="1">
                    <mxGeometry x="372.5" y="240" width="145" height="130" as="geometry"/>
                </mxCell>
                <mxCell id="12" style="edgeStyle=none;html=1;entryX=0.5;entryY=0;entryDx=0;entryDy=0;fontColor=#FFFFFF;sketch=1;curveFitting=1;jiggle=2;" edge="1" parent="1" source="7" target="11">
                    <mxGeometry relative="1" as="geometry"/>
                </mxCell>
                <mxCell id="7" value="&lt;span style=&quot;border-radius: 4px; padding: 0px 2px; background: linear-gradient(90deg, rgb(211, 227, 253) 50%, rgba(0, 0, 0, 0) 50%) 0% 0px / 200% 100% no-repeat rgb(255, 255, 255); color: rgb(4, 12, 40); animation: 0.75s cubic-bezier(0.05, 0.7, 0.1, 1) 0.25s 1 normal forwards running highlight; font-family: &amp;quot;Google Sans&amp;quot;, Arial, sans-serif; font-size: 20px; text-align: left;&quot;&gt;π , A&lt;/span&gt;" style="shape=tape;whiteSpace=wrap;html=1;fillColor=#a20025;strokeColor=#6F0000;fontColor=#ffffff;labelBackgroundColor=#1A1A1A;rounded=0;shadow=0;glass=0;sketch=1;curveFitting=1;jiggle=2;" vertex="1" parent="1">
                    <mxGeometry x="385" y="410" width="120" height="100" as="geometry"/>
                </mxCell>
                <mxCell id="10" style="edgeStyle=none;html=1;entryX=1.033;entryY=0.375;entryDx=0;entryDy=0;entryPerimeter=0;fontColor=#FFFFFF;sketch=1;curveFitting=1;jiggle=2;" edge="1" parent="1">
                    <mxGeometry relative="1" as="geometry">
                        <mxPoint x="508.9723312160593" y="577.6284585979927" as="sourcePoint"/>
                        <mxPoint x="513.96" y="575" as="targetPoint"/>
                        <Array as="points"/>
                    </mxGeometry>
                </mxCell>
                <mxCell id="11" value="fin" style="ellipse;whiteSpace=wrap;html=1;rounded=0;shadow=0;glass=0;labelBackgroundColor=#1A1A1A;strokeColor=#6F0000;fontColor=#ffffff;fillColor=#a20025;sketch=1;curveFitting=1;jiggle=2;" vertex="1" parent="1">
                    <mxGeometry x="380" y="560" width="120" height="80" as="geometry"/>
                </mxCell>
            </root>
        </mxGraphModel>
    </diagram>
</mxfile>